<?xml version="1.0" standalone="no"?>
<!DOCTYPE svg PUBLIC "-//W3C//DTD SVG 20010904//EN"
 "http://www.w3.org/TR/2001/REC-SVG-20010904/DTD/svg10.dtd">
<svg version="1.0" xmlns="http://www.w3.org/2000/svg"
 width="192.000000pt" height="192.000000pt" viewBox="0 0 192.000000 192.000000"
 preserveAspectRatio="xMidYMid meet">
<metadata>
Created by potrace 1.11, written by Peter Selinger 2001-2013
</metadata>
<g transform="translate(0.000000,192.000000) scale(0.100000,-0.100000)"
fill="#000000" stroke="none">
<path d="M0 1556 l0 -365 33 -4 32 -4 -32 -1 -33 -2 0 -590 0 -590 428 0 429
0 -2 28 c-1 16 -5 34 -9 40 -4 7 -3 12 3 12 11 0 27 -47 23 -67 -2 -10 17 -13
68 -13 54 0 69 3 64 13 -6 10 -4 10 7 0 7 -7 29 -13 48 -13 l35 0 -35 36 c-20
22 -26 32 -14 26 11 -6 31 -22 44 -36 l24 -26 404 0 403 0 0 960 0 960 -960 0
-960 0 0 -364z m980 150 c183 -39 349 -116 423 -196 80 -86 117 -164 128 -268
5 -48 10 -96 11 -107 3 -17 -4 -21 -52 -26 -30 -4 -65 -10 -76 -14 -13 -4 -25
-2 -28 4 -4 7 1 11 13 11 15 0 21 7 22 23 2 37 -2 62 -12 65 -5 2 -9 9 -9 15
0 6 -7 18 -16 28 -22 24 -14 48 8 25 15 -15 38 -22 38 -11 0 16 -26 55 -36 55
-8 0 -25 18 -38 39 -14 21 -31 41 -38 44 -7 2 -10 7 -7 11 3 4 18 2 33 -3 30
-12 32 -9 10 13 -12 12 -20 14 -35 5 -12 -6 -27 -8 -35 -5 -24 9 -16 -10 21
-50 35 -40 42 -54 26 -54 -5 0 -11 -7 -13 -15 -3 -15 -103 97 -103 116 0 5 -5
13 -10 17 -6 4 -17 20 -25 36 -20 40 -80 77 -132 83 -24 2 -50 7 -58 10 -8 4
-17 7 -20 7 -10 3 -100 96 -100 105 0 5 -12 14 -27 20 -22 9 -41 8 -87 -4 -75
-20 -83 -13 -14 14 63 24 146 26 238 7z m380 -416 c0 -5 -2 -10 -4 -10 -3 0
-8 5 -11 10 -3 6 -1 10 4 10 6 0 11 -4 11 -10z m-322 -116 c17 -18 32 -42 31
-51 0 -17 -1 -17 -12 1 -36 56 -49 66 -84 66 -20 0 -49 -9 -66 -22 l-32 -22
25 28 c49 55 86 55 138 0z m273 -94 c11 -6 19 -21 19 -35 0 -19 7 -26 28 -31
15 -4 33 -14 40 -23 11 -13 14 -14 22 -2 4 8 16 16 25 17 33 5 45 14 45 33 0
20 25 51 41 51 5 0 3 -13 -6 -30 -23 -44 -20 -58 41 -163 68 -119 65 -147 -16
-161 l-35 -6 35 13 c23 9 36 21 38 35 3 19 -1 22 -30 22 -39 0 -82 26 -74 46
3 7 1 16 -4 19 -5 3 -12 -20 -16 -51 -7 -61 4 -99 37 -122 10 -7 19 -22 19
-33 0 -17 -6 -20 -34 -18 -19 2 -40 -2 -49 -9 -18 -15 -30 -80 -28 -147 1 -54
-15 -108 -32 -102 -6 2 -15 16 -20 33 -5 16 -17 37 -25 47 -14 16 -12 21 17
62 28 39 32 51 26 84 -4 22 -2 42 3 45 12 7 4 46 -9 46 -16 0 -39 58 -39 97 0
28 3 34 10 23 8 -13 10 -12 10 3 0 9 4 17 9 17 5 0 12 -8 14 -17 3 -11 5 -7 6
10 1 16 -3 26 -9 22 -5 -3 -7 0 -4 8 3 8 -4 25 -16 38 -11 13 -29 40 -38 59
-10 19 -23 34 -30 32 -7 -1 -15 5 -19 14 -3 9 -17 28 -32 42 -18 18 -21 27
-12 30 7 2 18 -1 24 -7 16 -16 37 -14 37 4 0 18 5 18 31 5z m149 -40 c0 -5 -4
-10 -10 -10 -5 0 -10 5 -10 10 0 6 5 10 10 10 6 0 10 -4 10 -10z m-490 -100
c-1 -3 -7 4 -15 14 -8 11 -15 31 -15 45 1 22 3 19 15 -14 8 -22 15 -42 15 -45z
m40 -12 c0 -6 -6 -5 -15 2 -8 7 -15 14 -15 16 0 2 7 1 15 -2 8 -4 15 -11 15
-16z m-21 -12 c5 -6 12 -26 16 -43 8 -41 -10 -45 -28 -5 -6 15 -20 33 -29 40
-10 7 -18 17 -18 21 0 12 47 1 59 -13z m371 -226 c0 -5 -4 -10 -10 -10 -5 0
-10 5 -10 10 0 6 5 10 10 10 6 0 10 -4 10 -10z m120 -109 c0 -17 -4 -33 -10
-36 -5 -3 -10 3 -10 15 0 11 -7 23 -15 26 -20 8 -9 24 16 24 14 0 19 -7 19
-29z m-581 -129 c5 -18 6 -32 1 -32 -4 0 -10 10 -13 23 -2 12 -8 31 -12 42 -6
15 -5 17 4 9 6 -6 15 -25 20 -42z m-105 -128 c4 -14 11 -22 16 -19 14 8 80
-33 80 -50 0 -7 -7 -15 -15 -19 -8 -3 -15 -1 -15 5 0 6 -5 7 -12 3 -7 -4 -8
-3 -4 4 4 6 14 8 24 5 13 -4 12 -1 -5 16 -12 11 -26 21 -31 21 -13 0 -8 -53 6
-58 6 -2 12 -11 12 -20 0 -28 -34 16 -60 78 -12 30 -30 64 -39 74 -16 19 -15
19 11 2 14 -9 29 -28 32 -42z m112 -129 c-3 -8 -18 -15 -33 -15 -15 0 -23 4
-17 8 6 4 14 14 17 22 4 11 6 10 7 -5 1 -17 3 -17 12 5 11 26 25 12 14 -15z
m34 -6 c0 -6 -4 -7 -10 -4 -5 3 -10 11 -10 16 0 6 5 7 10 4 6 -3 10 -11 10
-16z m12 -29 c10 0 18 -7 18 -15 0 -8 9 -29 20 -47 31 -51 24 -52 -33 -6 -29
24 -63 51 -77 61 l-25 18 28 -6 c18 -3 27 -1 27 7 0 9 3 9 12 0 7 -7 20 -12
30 -12z"/>
<path d="M1270 1455 c0 -8 2 -15 4 -15 2 0 11 -3 20 -6 10 -4 16 -1 16 9 0 8
-7 18 -16 21 -22 9 -24 8 -24 -9z"/>
<path d="M936 135 c4 -8 11 -15 16 -15 6 0 5 6 -2 15 -7 8 -14 15 -16 15 -2 0
-1 -7 2 -15z"/>
</g>
</svg>
