<svg xmlns="http://www.w3.org/2000/svg" width="125" height="47" viewBox="0 0 125 47">
    <g fill="#4A4A4A" fill-rule="evenodd">
        <path d="M9.17 24.49H0V8.303h9.17v1.672H1.913v5.214H8.73v1.661H1.913v5.957H9.17zM12.536 24.49h1.867V7.262h-1.867zM23.067 13.673c-.99 0-1.78.317-2.37.952-.588.635-.935 1.513-1.04 2.634h6.447c0-1.158-.262-2.045-.786-2.662-.526-.616-1.277-.924-2.251-.924m.506 11.04c-1.822 0-3.261-.548-4.315-1.64-1.054-1.092-1.58-2.609-1.58-4.55 0-1.957.488-3.51 1.468-4.662.979-1.152 2.293-1.728 3.943-1.728 1.546 0 2.768.5 3.669 1.5.9 1.001 1.35 2.321 1.35 3.958v1.164h-8.496c.038 1.424.404 2.506 1.098 3.244.693.737 1.67 1.107 2.93 1.107 1.328 0 2.641-.273 3.939-.819v1.638a9.975 9.975 0 0 1-1.874.603c-.589.122-1.3.184-2.132.184M47.01 24.49v-7.895c0-.967-.209-1.692-.63-2.175-.42-.483-1.073-.725-1.958-.725-1.161 0-2.021.328-2.576.985-.555.657-.832 1.668-.832 3.034v6.776h-1.868v-7.895c0-.967-.21-1.692-.63-2.175-.42-.483-1.077-.725-1.97-.725-1.17 0-2.027.344-2.57 1.035-.545.69-.816 1.822-.816 3.393v6.367h-1.868V12.355h1.52l.302 1.66h.09c.353-.59.85-1.05 1.492-1.383.64-.332 1.358-.498 2.154-.498 1.928 0 3.188.686 3.782 2.06h.089c.368-.635.9-1.138 1.599-1.507.697-.369 1.491-.553 2.385-.553 1.395 0 2.439.352 3.132 1.057.695.704 1.041 1.832 1.041 3.382v7.917h-1.867zM56.091 23.195c1.163 0 2.076-.314 2.74-.941.664-.628.996-1.506.996-2.635v-1.096l-1.869.077c-1.485.052-2.555.279-3.211.68-.657.403-.985 1.029-.985 1.878 0 .664.204 1.169.613 1.517.408.346.98.52 1.716.52zm4.22 1.295l-.372-1.727h-.09c-.615.76-1.228 1.275-1.84 1.545-.61.269-1.374.404-2.29.404-1.222 0-2.18-.31-2.874-.93-.695-.621-1.04-1.503-1.04-2.647 0-2.45 1.99-3.735 5.974-3.853l2.093-.066v-.753c0-.952-.209-1.656-.625-2.11-.416-.453-1.082-.68-1.997-.68-1.029 0-2.19.31-3.488.93l-.574-1.406a8.88 8.88 0 0 1 1.997-.764 8.77 8.77 0 0 1 2.177-.277c1.47 0 2.56.322 3.27.964.708.64 1.062 1.67 1.062 3.088v8.282H60.31zM71.168 12.134c.548 0 1.04.044 1.474.133l-.259 1.705a6.51 6.51 0 0 0-1.35-.166c-.997 0-1.851.399-2.56 1.195-.709.798-1.063 1.79-1.063 2.979v6.51h-1.868V12.356h1.541l.215 2.247h.09c.457-.79 1.008-1.4 1.653-1.827a3.77 3.77 0 0 1 2.127-.642M78.82 28.752c-.705 0-1.261-.099-1.666-.298v-1.606a6.19 6.19 0 0 0 1.666.222c.742 0 1.307-.222 1.693-.665.386-.443.58-1.082.58-1.915V8.302h1.912v16.032c0 1.403-.36 2.49-1.08 3.262-.72.77-1.756 1.156-3.105 1.156M89.284 16.142h2.621c1.35 0 2.34-.264 2.972-.792.63-.527.945-1.319.945-2.375 0-1.07-.321-1.84-.963-2.314-.64-.472-1.67-.708-3.088-.708h-2.487v6.19zm0 1.616v6.732h-1.913V8.303h4.512c2.018 0 3.509.381 4.473 1.14.964.76 1.446 1.905 1.446 3.432 0 2.142-1.103 3.587-3.309 4.341l4.468 7.274h-2.262l-3.983-6.732h-3.432zM90.189 41.787c1.193 0 2.162.954 2.162 2.13 0 1.175-.969 2.13-2.162 2.13s-2.162-.955-2.162-2.13c0-1.176.969-2.13 2.162-2.13zM95.467 41.541c1.331 0 2.413 1.064 2.413 2.376 0 1.31-1.082 2.375-2.413 2.375-1.332 0-2.413-1.064-2.413-2.376 0-1.31 1.081-2.375 2.413-2.375zM106.02 41.541c1.332 0 2.413 1.064 2.413 2.376 0 1.31-1.081 2.375-2.414 2.375-1.331 0-2.412-1.064-2.412-2.376 0-1.31 1.081-2.375 2.412-2.375zM111.299 41.541c1.332 0 2.413 1.064 2.413 2.376 0 1.31-1.08 2.375-2.413 2.375-1.333 0-2.414-1.064-2.414-2.376 0-1.31 1.081-2.375 2.414-2.375zM116.576 41.541c1.333 0 2.414 1.064 2.414 2.376 0 1.31-1.081 2.375-2.414 2.375-1.332 0-2.413-1.064-2.413-2.376 0-1.31 1.08-2.375 2.413-2.375zM79.693 36.84c1.056 0 1.914.844 1.914 1.883 0 1.039-.858 1.882-1.914 1.882-1.057 0-1.914-.843-1.914-1.882 0-1.04.857-1.883 1.914-1.883zM84.97 36.84c1.057 0 1.915.844 1.915 1.883 0 1.039-.858 1.882-1.915 1.882-1.056 0-1.914-.843-1.914-1.882 0-1.04.858-1.883 1.914-1.883zM95.526 40.851c1.192 0 2.161-.955 2.161-2.127 0-1.175-.97-2.129-2.161-2.129-1.194 0-2.164.954-2.164 2.13 0 1.171.97 2.126 2.164 2.126M100.803 36.595c1.193 0 2.161.953 2.161 2.128 0 1.174-.968 2.128-2.161 2.128-1.194 0-2.162-.954-2.162-2.128 0-1.175.968-2.128 2.162-2.128zM106.08 36.35c1.333 0 2.413 1.063 2.413 2.373 0 1.31-1.08 2.374-2.413 2.374-1.331 0-2.412-1.064-2.412-2.374s1.081-2.374 2.412-2.374zM111.357 36.35c1.331 0 2.413 1.063 2.413 2.373 0 1.31-1.082 2.374-2.413 2.374-1.333 0-2.414-1.064-2.414-2.374s1.081-2.374 2.414-2.374zM116.633 36.35c1.333 0 2.415 1.063 2.415 2.373 0 1.31-1.082 2.374-2.415 2.374-1.332 0-2.415-1.064-2.415-2.374s1.083-2.374 2.415-2.374zM121.913 36.35c1.332 0 2.412 1.063 2.412 2.373 0 1.31-1.08 2.374-2.412 2.374-1.333 0-2.414-1.064-2.414-2.374s1.081-2.374 2.414-2.374zM90.248 35.414c1.057 0 1.914-.843 1.914-1.885 0-1.039-.857-1.88-1.914-1.88-1.058 0-1.914.841-1.914 1.88 0 1.042.856 1.885 1.914 1.885M95.526 35.66c1.192 0 2.161-.956 2.161-2.13 0-1.173-.97-2.128-2.161-2.128-1.194 0-2.164.955-2.164 2.128 0 1.174.97 2.13 2.164 2.13M100.804 35.414c1.055 0 1.911-.843 1.911-1.885 0-1.039-.856-1.88-1.91-1.88-1.06 0-1.915.841-1.915 1.88 0 1.042.855 1.885 1.914 1.885M106.078 35.66c1.193 0 2.165-.956 2.165-2.13 0-1.173-.972-2.128-2.165-2.128-1.192 0-2.16.955-2.16 2.128 0 1.174.968 2.13 2.16 2.13M111.357 31.157c1.331 0 2.413 1.064 2.413 2.374s-1.082 2.375-2.413 2.375c-1.333 0-2.414-1.064-2.414-2.375 0-1.31 1.081-2.374 2.414-2.374zM121.913 31.157c1.332 0 2.412 1.064 2.412 2.374s-1.08 2.375-2.412 2.375c-1.333 0-2.414-1.064-2.414-2.375 0-1.31 1.081-2.374 2.414-2.374zM111.357 26.21c1.194 0 2.163.953 2.163 2.128 0 1.175-.97 2.13-2.163 2.13-1.194 0-2.164-.954-2.164-2.13 0-1.175.97-2.129 2.164-2.129zM116.633 25.964c1.333 0 2.415 1.064 2.415 2.375 0 1.31-1.082 2.375-2.415 2.375-1.332 0-2.415-1.064-2.415-2.375s1.083-2.375 2.415-2.375zM111.24 25.273c1.192 0 2.162-.955 2.162-2.127 0-1.175-.97-2.13-2.161-2.13-1.194 0-2.164.955-2.164 2.13 0 1.172.97 2.127 2.164 2.127M116.518 21.017c1.194 0 2.164.953 2.164 2.128 0 1.174-.97 2.128-2.164 2.128-1.194 0-2.164-.954-2.164-2.128 0-1.175.97-2.128 2.164-2.128zM121.793 25.518c1.331 0 2.414-1.064 2.414-2.373 0-1.31-1.083-2.375-2.414-2.375-1.33 0-2.413 1.066-2.413 2.375 0 1.31 1.082 2.373 2.413 2.373M111.18 19.837c1.058 0 1.916-.843 1.916-1.883 0-1.042-.858-1.884-1.916-1.884-1.057 0-1.914.842-1.914 1.884 0 1.04.857 1.883 1.914 1.883M116.458 20.083c1.192 0 2.16-.955 2.16-2.129 0-1.175-.968-2.13-2.16-2.13-1.194 0-2.164.955-2.164 2.13 0 1.174.97 2.129 2.164 2.129M121.735 15.824c1.194 0 2.163.954 2.163 2.13 0 1.175-.97 2.13-2.163 2.13-1.193 0-2.163-.955-2.163-2.13 0-1.176.97-2.13 2.163-2.13zM116.517 14.645c1.056 0 1.916-.844 1.916-1.884 0-1.042-.86-1.884-1.916-1.884-1.058 0-1.913.842-1.913 1.884 0 1.04.855 1.884 1.913 1.884M121.794 10.631c1.194 0 2.163.954 2.163 2.13 0 1.175-.97 2.13-2.163 2.13-1.194 0-2.164-.955-2.164-2.13 0-1.175.97-2.13 2.164-2.13zM121.794 5.438c1.194 0 2.163.954 2.163 2.128 0 1.175-.97 2.129-2.163 2.129-1.194 0-2.164-.954-2.164-2.129 0-1.174.97-2.128 2.164-2.128zM121.793 4.749c1.331 0 2.414-1.065 2.414-2.374 0-1.31-1.083-2.375-2.414-2.375-1.33 0-2.413 1.065-2.413 2.375 0 1.309 1.082 2.374 2.413 2.374"/>
    </g>
</svg>
