<svg xmlns="http://www.w3.org/2000/svg" width="34" height="29" viewBox="0 0 34 29">
    <g fill="none" fill-rule="evenodd">
        <path fill="#FFF" d="M.784 3h1.792V1.244H26.35v6.058c.175 4.704.685 8.079 1.53 10.123.846 2.045 2.451 3.755 4.815 5.13l-6.345.73v3.075h-1.684v1.848H.784V3z"/>
        <path fill="#1E1F22" fill-rule="nonzero" d="M24.604 26.905a.4.4 0 1 1 .8 0v1.56a.4.4 0 0 1-.4.4H.42a.4.4 0 0 1-.4-.4V2.658c0-.221.18-.4.4-.4h1.722a.4.4 0 1 1 0 .8H.821v25.007h23.783v-1.16z"/>
        <path fill="#1E1F22" fill-rule="nonzero" d="M26.357 23.528a.4.4 0 1 1 .8 0v3.179a.4.4 0 0 1-.4.4H2.175a.4.4 0 0 1-.4-.4V.9c0-.221.179-.4.4-.4h24.582a.4.4 0 1 1 0 .8H2.575v25.006h23.782v-2.78z"/>
        <path fill="#1E1F22" fill-rule="nonzero" d="M32.088 21.266c.342.246 1.631 1.135 1.7 1.184a.4.4 0 0 1-.188.726L12.495 25.3c-5.01.844-9.818-6.729-10.717-14.142a.4.4 0 1 1 .794-.097c.85 7.016 5.405 14.189 9.816 13.447l20.051-2.02c-.332-.23-.665-.463-.818-.573-4.366-3.14-5.517-7.01-5.264-21.022.01-.528.8-.52.8.008v.289a.402.402 0 0 1-.006.07c-.224 13.485.874 17.083 4.937 20.006z"/>
    </g>
</svg>
